# xmcd
#
# Track frame offsets:
#	150
#	8934
#	22761
#	32774
#	43694
#	51251
#	65576
#	75356
#	87116
#	98396
#	111796
#	123331
#	134909
#	151002
#	163390
#	178435
#	195464
#	210501
#	224669
#	237002
#
# Disc length: 3339 seconds
#
# Revision: 1
# Processed by: cddbd v1.5.2PL0 Copyright (c) Steve Scherf et al.
# Submitted via: audiograbber 1.83.01
#
DISCID=0c0d0914
DTITLE=TIBAGI E MILTINHO - 20 SUPER SUCESSOS-SERTANEJO
DYEAR=1900
DGENRE=
TTITLE0=BIS PARA O AMOR
TTITLE1=O MENINO DA PORTEIRA
TTITLE2=ORGULHO
TTITLE3=LÁGRIMAS DE QUEM AMA
TTITLE4=BEIJA-ME COM TERNURA
TTITLE5=SAUDADE DA MINHA TERRA
TTITLE6=SAGRADO AMOR
TTITLE7=BENDITA HORA
TTITLE8=CORAÇÃO SOLITÁRIO
TTITLE9=BEIJINHO DOCE
TTITLE10=TEU ADEUS
TTITLE11=MINHA ÚLTIMA NOITE
TTITLE12=POMBINHA BRANCA
TTITLE13=TODINHA PRÁ MIM
TTITLE14=NOITE TRISTE
TTITLE15=MÁGUA DE BOIADEIRO
TTITLE16=UMA LÁGRIMA
TTITLE17=SEMPRE A ESPERAR
TTITLE18=SEGUE TEU CAMINHO
TTITLE19=SÃO JUDAS TADEU
EXTD=
EXTT0=
EXTT1=
EXTT2=
EXTT3=
EXTT4=
EXTT5=
EXTT6=
EXTT7=
EXTT8=
EXTT9=
EXTT10=
EXTT11=
EXTT12=
EXTT13=
EXTT14=
EXTT15=
EXTT16=
EXTT17=
EXTT18=
EXTT19=
PLAYORDER=
